<?xml version="1.0" standalone="no"?><!DOCTYPE svg PUBLIC "-//W3C//DTD SVG 1.1//EN" "http://www.w3.org/Graphics/SVG/1.1/DTD/svg11.dtd"><svg t="1540209808391" class="icon" style="" viewBox="0 0 1024 1024" version="1.1" xmlns="http://www.w3.org/2000/svg" p-id="2684" xmlns:xlink="http://www.w3.org/1999/xlink" width="200" height="200"><defs><style type="text/css"></style></defs><path d="M480 734.4V960h160v64H256v-64h160v-225.6A320 320 0 0 1 128 416V160h128.48L213.728 64H96V0h192v64h-4.224l42.752 96H768v256a320 320 0 0 1-288 318.4zM704 224H355.2l85.312 191.616-58.464 26.048-96.928-217.6H192v192a256 256 0 0 0 512 0v-192z" fill="#1E59E4" p-id="2685"></path><path d="M768 320V256a96 96 0 1 0-96-96h-64a160 160 0 1 1 160 160z" fill="#FF5A06" p-id="2686"></path></svg>